<svg width="338.6568359375px" height="135.2px" xmlns="http://www.w3.org/2000/svg" viewBox="80.67158203125001 7.400000000000006 338.6568359375 135.2" style="background: rgba(232, 51, 229, 0.573);" preserveAspectRatio="xMidYMid"><defs><linearGradient id="editing-sticker-gradient" x1="0.5" y1="0.2" x2="0.5" y2="0.8"><stop offset="0" stop-color="#fefefe"></stop><stop offset="1" stop-color="#562d94"></stop></linearGradient><filter id="editing-sticker" x="-100%" y="-100%" width="300%" height="300%"><feMorphology operator="erode" radius="1" in="SourceAlpha" result="alpha-erode"></feMorphology><feConvolveMatrix order="3,3" divisor="1" kernelMatrix="0 1 0 1 1 1 0 1 0" in="alpha-erode" result="alpha-round"></feConvolveMatrix><feMorphology operator="dilate" radius="3.5" in="alpha-round" result="dilate-shadow"></feMorphology><feGaussianBlur in="dilate-shadow" stdDeviation="1.5" result="shadow"></feGaussianBlur><feFlood flood-color="#fff" result="flood-sticker"></feFlood><feComposite operator="in" in="flood-sticker" in2="alpha-round" result="comp-sticker"></feComposite><feMorphology operator="dilate" radius="3" in="comp-sticker" result="morph-sticker"></feMorphology><feConvolveMatrix order="3,3" divisor="1" kernelMatrix="0 1 0 1 1 1 0 1 0" in="morph-sticker" result="sticker"></feConvolveMatrix><feMerge><feMergeNode in="shadow"></feMergeNode><feMergeNode in="sticker"></feMergeNode><feMergeNode in="SourceGraphic"></feMergeNode></feMerge></filter></defs><g filter="url(#editing-sticker)"><g transform="translate(132.69493508338928, 116.59143447875977)"><path d="M28.41-30.26L28.41-30.26L28.41-30.26Q28.41-30.18 28.34-29.99L28.34-29.99L28.34-29.99Q28.26-29.80 28.18-29.64L28.18-29.64L28.18-29.64Q27.72-28.57 26.87-27.80L26.87-27.80L26.87-27.80Q26.03-27.03 25.10-26.49L25.10-26.49L25.10-26.49Q24.18-25.95 23.25-25.72L23.25-25.72L23.25-25.72Q22.33-25.49 21.64-25.56L21.64-25.56L21.64-25.56Q19.56-25.72 17.32-26.30L17.32-26.30L17.32-26.30Q15.09-26.87 13.09-27.64L13.09-27.64L13.09-27.64Q13.01-27.64 12.67-27.87L12.67-27.87L12.67-27.87Q12.32-28.11 12.32-28.26L12.32-28.26L12.32-28.26Q12.32-28.41 12.55-28.49L12.55-28.49L12.55-28.49Q12.78-28.57 12.94-28.64L12.94-28.64L12.94-28.64Q13.40-28.80 14.17-28.88L14.17-28.88L14.17-28.88Q14.94-28.95 15.75-28.95L15.75-28.95L15.75-28.95Q16.55-28.95 17.32-28.91L17.32-28.91L17.32-28.91Q18.09-28.88 18.63-28.80L18.63-28.80L18.63-28.80Q19.87-28.57 21.25-28.53L21.25-28.53L21.25-28.53Q22.64-28.49 23.95-28.64L23.95-28.64L23.95-28.64Q25.26-28.80 26.33-29.18L26.33-29.18L26.33-29.18Q27.41-29.57 28.03-30.26L28.03-30.26L28.03-30.26Q28.41-30.65 28.41-30.26ZM29.03-32.57L29.03-32.57L28.80-32.26L28.80-32.26Q27.41-30.34 25.53-29.88L25.53-29.88L25.53-29.88Q23.64-29.41 21.56-29.64L21.56-29.64L21.56-29.64Q19.48-29.88 17.29-30.41L17.29-30.41L17.29-30.41Q15.09-30.95 13.01-31.03L13.01-31.03L13.01-31.03Q10.32-31.18 7.55-29.84L7.55-29.84L7.55-29.84Q4.77-28.49 2.77-25.02L2.77-25.02L2.77-25.02Q2.62-24.64 2.46-24.72L2.46-24.72L2.46-24.72Q2.39-24.72 2.43-24.99L2.43-24.99L2.43-24.99Q2.46-25.26 2.54-25.41L2.54-25.41L2.54-25.41Q3.31-27.72 4.47-29.26L4.47-29.26L4.47-29.26Q5.62-30.80 6.97-31.72L6.97-31.72L6.97-31.72Q8.32-32.65 9.74-33.03L9.74-33.03L9.74-33.03Q11.16-33.42 12.55-33.42L12.55-33.42L12.55-33.42Q16.40-41.58 21.60-48.28L21.60-48.28L21.60-48.28Q26.80-54.98 32.88-59.60L32.88-59.60L32.88-59.60Q33.11-59.75 33.30-59.94L33.30-59.94L33.30-59.94Q33.49-60.14 33.65-60.06L33.65-60.06L33.65-60.06Q33.80-60.06 33.57-59.71L33.57-59.71L33.57-59.71Q33.34-59.37 33.26-59.29L33.26-59.29L33.26-59.29Q28.34-53.98 23.68-47.39L23.68-47.39L23.68-47.39Q19.02-40.81 15.32-33.26L15.32-33.26L15.32-33.26Q15.63-33.11 15.98-33.11L15.98-33.11L15.98-33.11Q16.32-33.11 16.63-33.03L16.63-33.03L16.63-33.03Q17.48-34.96 18.52-37.15L18.52-37.15L18.52-37.15Q19.56-39.35 20.87-41.58L20.87-41.58L20.87-41.58Q22.18-43.97 23.75-46.16L23.75-46.16L23.75-46.16Q25.33-48.36 26.91-50.20L26.91-50.20L26.91-50.20Q28.49-52.05 29.80-53.52L29.80-53.52L29.80-53.52Q31.11-54.98 31.88-55.82L31.88-55.82L31.88-55.82Q32.19-56.13 32.46-56.36L32.46-56.36L32.46-56.36Q32.73-56.59 32.88-56.52L32.88-56.52L32.88-56.52Q33.03-56.44 32.88-56.13L32.88-56.13L32.88-56.13Q32.73-55.82 32.57-55.59L32.57-55.59L32.57-55.59Q31.65-53.75 30.30-51.32L30.30-51.32L30.30-51.32Q28.95-48.89 27.45-46.32L27.45-46.32L27.45-46.32Q25.95-43.74 24.49-41.16L24.49-41.16L24.49-41.16Q23.02-38.58 21.87-36.50L21.87-36.50L21.87-36.50Q21.33-35.50 20.75-34.53L20.75-34.53L20.75-34.53Q20.17-33.57 19.71-32.49L19.71-32.49L19.71-32.49Q20.25-32.49 20.87-32.26L20.87-32.26L20.87-32.26Q22.56-35.73 24.45-39.08L24.45-39.08L24.45-39.08Q26.33-42.43 28.57-45.81L28.57-45.81L28.57-45.81Q28.88-46.20 28.91-46.32L28.91-46.32L28.91-46.32Q28.95-46.43 29.11-46.28L29.11-46.28L29.11-46.28Q29.18-46.20 29.03-45.58L29.03-45.58L29.03-45.58Q28.18-43.35 26.53-39.66L26.53-39.66L26.53-39.66Q24.87-35.96 23.18-31.95L23.18-31.95L23.18-31.95Q24.72-31.80 26.10-31.95L26.10-31.95L26.10-31.95Q27.49-32.11 28.80-32.73L28.80-32.73L28.80-32.73Q28.88-32.73 28.95-32.76L28.95-32.76L28.95-32.76Q29.03-32.80 29.03-32.57ZM8.55-28.03L8.55-28.03L8.55-28.03Q8.55-27.72 8.05-27.30L8.05-27.30L8.05-27.30Q7.55-26.87 7.39-26.80L7.39-26.80L5.24-25.33L5.24-25.33Q4.62-24.72 4.16-24.18L4.16-24.18L4.16-24.18Q3.70-23.64 3.16-22.87L3.16-22.87L3.16-22.87Q3.00-22.71 2.96-22.56L2.96-22.56L2.96-22.56Q2.93-22.41 2.77-22.41L2.77-22.41L2.77-22.41Q2.69-22.41 2.69-23.02L2.69-23.02L2.69-23.02Q2.69-23.33 2.77-23.64L2.77-23.64L2.77-23.64Q3.16-24.72 3.54-25.45L3.54-25.45L3.54-25.45Q3.93-26.18 4.93-27.03L4.93-27.03L4.93-27.03Q5.31-27.34 5.93-27.64L5.93-27.64L5.93-27.64Q6.54-27.95 7.12-28.14L7.12-28.14L7.12-28.14Q7.70-28.34 8.12-28.34L8.12-28.34L8.12-28.34Q8.55-28.34 8.55-28.03ZM11.16-23.02L11.16-23.02L11.16-23.02Q10.09-20.10 9.39-17.25L9.39-17.25L9.39-17.25Q8.70-14.40 8.08-11.47L8.08-11.47L8.08-11.47Q7.24-7.16 6.89-2.66L6.89-2.66L6.89-2.66Q6.54 1.85 6.74 6.20L6.74 6.20L6.74 6.20Q6.93 10.55 7.66 14.63L7.66 14.63L7.66 14.63Q8.39 18.71 9.70 22.18L9.70 22.18L9.70 22.18Q9.86 22.56 9.97 22.83L9.97 22.83L9.97 22.83Q10.09 23.10 9.93 23.10L9.93 23.10L9.93 23.10Q9.70 23.10 9.47 22.79L9.47 22.79L9.47 22.79Q7.31 19.25 6.08 15.05L6.08 15.05L6.08 15.05Q4.85 10.86 4.50 6.16L4.50 6.16L4.50 6.16Q4.16 1.46 4.58-3.54L4.58-3.54L4.58-3.54Q5.00-8.55 6.08-13.63L6.08-13.63L6.08-13.63Q7.08-18.71 8.62-23.56L8.62-23.56L8.62-23.56Q8.01-23.72 7.55-23.79L7.55-23.79L7.55-23.79Q7.08-23.87 6.62-24.02L6.62-24.02L6.62-24.02Q6.47-24.10 6.16-24.22L6.16-24.22L6.16-24.22Q5.85-24.33 5.85-24.49L5.85-24.49L5.85-24.49Q5.85-24.64 6.08-24.72L6.08-24.72L6.08-24.72Q6.31-24.79 6.47-24.87L6.47-24.87L6.47-24.87Q9.24-25.87 12.09-25.64L12.09-25.64L12.09-25.64Q14.94-25.41 17.86-24.87L17.86-24.87L17.86-24.87Q19.63-24.56 21.52-24.41L21.52-24.41L21.52-24.41Q23.41-24.25 25.41-25.02L25.41-25.02L25.41-25.02Q25.72-25.18 25.72-25.02L25.72-25.02L25.72-25.02Q25.72-24.95 25.41-24.49L25.41-24.49L25.41-24.49Q24.56-23.18 22.91-22.75L22.91-22.75L22.91-22.75Q21.25-22.33 19.48-22.25L19.48-22.25L19.48-22.25Q18.40-19.02 17.67-16.17L17.67-16.17L17.67-16.17Q16.94-13.32 16.55-11.32L16.55-11.32L11.94 10.16L11.94 10.16Q11.78 10.86 11.70 11.36L11.70 11.36L11.70 11.36Q11.63 11.86 11.47 11.70L11.47 11.70L11.47 11.70Q11.24 11.86 11.20 11.20L11.20 11.20L11.20 11.20Q11.16 10.55 11.16 9.93L11.16 9.93L11.16 9.93Q11.16 2.46 12.59-5.81L12.59-5.81L12.59-5.81Q14.01-14.09 16.86-22.33L16.86-22.33L16.86-22.33Q16.40-22.48 16.05-22.48L16.05-22.48L16.05-22.48Q15.71-22.48 15.32-22.56L15.32-22.56L15.32-22.56Q14.17-19.56 13.21-16.55L13.21-16.55L13.21-16.55Q12.24-13.55 11.32-10.63L11.32-10.63L11.32-10.63Q11.32-10.47 11.20-10.13L11.20-10.13L11.20-10.13Q11.09-9.78 10.93-9.39L10.93-9.39L10.93-9.39Q10.78-9.01 10.59-8.74L10.59-8.74L10.59-8.74Q10.39-8.47 10.32-8.47L10.32-8.47L10.32-8.47Q10.24-8.47 10.28-8.78L10.28-8.78L10.28-8.78Q10.32-9.09 10.36-9.51L10.36-9.51L10.36-9.51Q10.39-9.93 10.43-10.36L10.43-10.36L10.43-10.36Q10.47-10.78 10.47-10.93L10.47-10.93L10.47-10.93Q10.63-13.09 11.32-16.36L11.32-16.36L11.32-16.36Q12.01-19.63 12.86-22.79L12.86-22.79L12.86-22.79Q11.94-22.79 11.16-23.02ZM12.09 22.79L12.09 22.79L12.09 22.79Q11.94 22.87 11.55 22.48L11.55 22.48L11.55 22.48Q11.40 22.33 11.32 22.18L11.32 22.18L11.32 22.18Q10.86 21.41 10.51 20.75L10.51 20.75L10.51 20.75Q10.16 20.10 9.86 19.29L9.86 19.29L9.86 19.29Q9.55 18.48 9.28 17.32L9.28 17.32L9.28 17.32Q9.01 16.17 8.78 14.40L8.78 14.40L8.78 14.40Q8.55 13.09 8.47 11.05L8.47 11.05L8.47 11.05Q8.39 9.01 8.39 7.08L8.39 7.08L8.39 7.08Q8.39 5.16 8.55 3.77L8.55 3.77L8.55 3.77Q8.70 2.39 8.93 2.39L8.93 2.39L8.93 2.39Q9.09 2.39 9.24 2.96L9.24 2.96L9.24 2.96Q9.39 3.54 9.47 4.31L9.47 4.31L9.47 4.31Q9.55 5.08 9.59 5.81L9.59 5.81L9.59 5.81Q9.63 6.54 9.63 6.85L9.63 6.85L10.32 13.94L10.32 13.94Q10.55 16.02 11.01 17.94L11.01 17.94L11.01 17.94Q11.47 19.87 12.01 21.79L12.01 21.79L12.01 21.79Q12.09 22.10 12.13 22.45L12.13 22.45L12.13 22.45Q12.17 22.79 12.09 22.79ZM55.21-27.10L55.21-27.10L55.21-27.10Q54.59-24.02 53.13-20.94L53.13-20.94L53.13-20.94Q51.67-17.86 50.36-15.17L50.36-15.17L50.36-15.17Q50.28-15.02 50.01-14.63L50.01-14.63L50.01-14.63Q49.74-14.24 49.59-14.24L49.59-14.24L49.59-14.24Q49.36-14.32 49.36-14.75L49.36-14.75L49.36-14.75Q49.36-15.17 49.36-15.32L49.36-15.32L49.36-15.32Q49.43-16.02 49.63-16.98L49.63-16.98L49.63-16.98Q49.82-17.94 49.97-18.98L49.97-18.98L49.97-18.98Q50.13-20.02 50.32-20.98L50.32-20.98L50.32-20.98Q50.51-21.95 50.74-22.71L50.74-22.71L50.74-22.71Q51.44-25.33 51.90-27.22L51.90-27.22L51.90-27.22Q52.36-29.11 52.59-30.65L52.59-30.65L52.59-30.65Q52.82-32.19 52.86-33.57L52.86-33.57L52.86-33.57Q52.90-34.96 52.67-36.58L52.67-36.58L52.67-36.58Q52.59-37.19 52.75-37.34L52.75-37.34L52.75-37.34Q52.90-37.42 53.13-37.19L53.13-37.19L53.13-37.19Q53.36-36.96 53.52-36.73L53.52-36.73L53.52-36.73Q54.82-34.65 55.29-32.15L55.29-32.15L55.29-32.15Q55.75-29.64 55.21-27.10ZM56.75-32.73L57.06-32.26L57.06-32.26Q58.06-30.80 58.06-28.41L58.06-28.41L58.06-28.41Q58.06-26.03 57.60-23.52L57.60-23.52L57.60-23.52Q57.13-21.02 56.44-18.71L56.44-18.71L56.44-18.71Q55.75-16.40 55.44-15.02L55.44-15.02L55.44-15.02Q54.82-12.32 53.75-9.63L53.75-9.63L53.75-9.63Q52.67-6.93 51.90-4.85L51.90-4.85L51.90-4.85Q51.82-4.62 51.67-4.35L51.67-4.35L51.67-4.35Q51.51-4.08 51.36-4.08L51.36-4.08L51.36-4.08Q51.20-4.08 51.20-4.39L51.20-4.39L51.20-4.39Q51.20-4.70 51.20-4.93L51.20-4.93L51.20-4.93Q50.97-9.16 52.13-13.21L52.13-13.21L52.13-13.21Q53.28-17.25 54.59-21.41L54.59-21.41L54.59-21.41Q55.36-23.95 56.06-26.60L56.06-26.60L56.06-26.60Q56.75-29.26 56.67-32.42L56.67-32.42L56.67-32.42Q56.67-32.73 56.75-32.73L56.75-32.73ZM49.82-33.57L49.82-33.57L49.82-33.57Q45.12-31.65 41.85-28.07L41.85-28.07L41.85-28.07Q38.58-24.49 36.81-20.02L36.81-20.02L36.81-20.02Q36.04-18.02 35.65-16.44L35.65-16.44L35.65-16.44Q35.27-14.86 35.03-13.01L35.03-13.01L35.03-13.01Q34.96-12.63 35.27-12.24L35.27-12.24L35.27-12.24Q35.57-11.86 35.88-12.24L35.88-12.24L35.88-12.24Q37.27-13.94 39.42-16.55L39.42-16.55L39.42-16.55Q41.58-19.17 43.74-22.10L43.74-22.10L43.74-22.10Q45.89-25.02 47.62-28.03L47.62-28.03L47.62-28.03Q49.36-31.03 49.82-33.57ZM44.66-7.47L44.66-7.47L44.66-7.47Q43.50-5.85 42.43-4.47L42.43-4.47L42.43-4.47Q41.35-3.08 40.04-2.04L40.04-2.04L40.04-2.04Q38.73-1.00 37.11-0.39L37.11-0.39L37.11-0.39Q35.50 0.23 33.42 0.31L33.42 0.31L33.42 0.31Q29.95 0.46 28.14-1.46L28.14-1.46L28.14-1.46Q26.33-3.39 25.64-6.16L25.64-6.16L25.64-6.16Q24.95-8.93 25.14-11.90L25.14-11.90L25.14-11.90Q25.33-14.86 25.95-16.79L25.95-16.79L25.95-16.79Q26.80-19.48 27.99-21.91L27.99-21.91L27.99-21.91Q29.18-24.33 30.53-26.30L30.53-26.30L30.53-26.30Q31.88-28.26 33.30-29.68L33.30-29.68L33.30-29.68Q34.73-31.11 36.11-31.88L36.11-31.88L36.11-31.88Q36.19-31.88 36.46-32.03L36.46-32.03L36.46-32.03Q36.73-32.19 36.73-31.95L36.73-31.95L36.73-31.95Q36.81-31.95 36.65-31.72L36.65-31.72L36.65-31.72Q36.50-31.49 36.34-31.34L36.34-31.34L36.34-31.34Q32.34-27.18 29.99-21.95L29.99-21.95L29.99-21.95Q27.64-16.71 27.34-11.16L27.34-11.16L27.34-11.16Q27.26-9.78 27.45-8.16L27.45-8.16L27.45-8.16Q27.64-6.54 28.22-5.12L28.22-5.12L28.22-5.12Q28.80-3.70 29.88-2.73L29.88-2.73L29.88-2.73Q30.95-1.77 32.80-1.77L32.80-1.77L32.80-1.77Q34.27-1.77 35.50-2.27L35.50-2.27L35.50-2.27Q36.73-2.77 37.81-3.58L37.81-3.58L37.81-3.58Q38.88-4.39 39.77-5.35L39.77-5.35L39.77-5.35Q40.66-6.31 41.35-7.16L41.35-7.16L41.35-7.16Q42.89-9.09 44.20-11.16L44.20-11.16L44.20-11.16Q44.20-12.71 44.39-14.17L44.39-14.17L44.39-14.17Q44.58-15.63 44.97-17.09L44.97-17.09L44.97-17.09Q45.20-18.17 45.39-18.83L45.39-18.83L45.39-18.83Q45.58-19.48 45.78-20.06L45.78-20.06L45.78-20.06Q45.97-20.64 46.16-21.29L46.16-21.29L46.16-21.29Q46.35-21.95 46.74-23.02L46.74-23.02L46.74-23.02Q45.51-20.87 44.31-18.98L44.31-18.98L44.31-18.98Q43.12-17.09 41.77-15.36L41.77-15.36L41.77-15.36Q40.42-13.63 39.00-11.97L39.00-11.97L39.00-11.97Q37.58-10.32 35.88-8.62L35.88-8.62L35.88-8.62Q34.57-7.31 33.73-7.78L33.73-7.78L33.73-7.78Q32.88-8.24 32.73-9.93L32.73-9.93L32.73-9.93Q32.57-12.55 32.99-15.02L32.99-15.02L32.99-15.02Q33.42-17.48 34.50-20.17L34.50-20.17L34.50-20.17Q35.50-22.64 37.00-24.95L37.00-24.95L37.00-24.95Q38.50-27.26 40.46-29.14L40.46-29.14L40.46-29.14Q42.43-31.03 44.81-32.38L44.81-32.38L44.81-32.38Q47.20-33.73 49.90-34.19L49.90-34.19L49.90-34.19Q50.05-35.03 50.17-35.65L50.17-35.65L50.17-35.65Q50.28-36.27 50.36-36.88L50.36-36.88L50.36-36.88Q50.51-37.73 50.51-37.73L50.51-37.73L50.51-37.73Q50.67-37.81 50.86-37.58L50.86-37.58L50.86-37.58Q51.05-37.34 51.20-36.96L51.20-36.96L51.20-36.96Q52.13-34.42 51.82-31.88L51.82-31.88L51.82-31.88Q51.51-29.34 50.70-26.72L50.70-26.72L50.70-26.72Q49.90-24.10 48.82-21.37L48.82-21.37L48.82-21.37Q47.74-18.63 47.05-15.86L47.05-15.86L47.05-15.86Q46.12-11.94 46.55-7.74L46.55-7.74L46.55-7.74Q46.97-3.54 49.82-0.15L49.82-0.15L49.82-0.15Q50.05 0.15 50.05 0.15L50.05 0.15L50.05 0.15Q49.97 0.23 49.59 0L49.59 0L49.59 0Q47.36-1.39 46.24-3.35L46.24-3.35L46.24-3.35Q45.12-5.31 44.66-7.47ZM47.36-34.73L47.36-34.73L47.36-34.73Q47.51-34.57 47.32-34.50L47.32-34.50L47.32-34.50Q47.12-34.42 46.51-34.27L46.51-34.27L46.51-34.27Q45.51-33.96 44.08-33.11L44.08-33.11L44.08-33.11Q42.66-32.26 41.08-30.95L41.08-30.95L41.08-30.95Q39.50-29.64 37.96-27.91L37.96-27.91L37.96-27.91Q36.42-26.18 35.27-24.18L35.27-24.18L35.27-24.18Q34.11-22.10 33.30-20.10L33.30-20.10L33.30-20.10Q32.49-18.09 31.99-16.44L31.99-16.44L31.99-16.44Q31.49-14.78 31.26-13.59L31.26-13.59L31.26-13.59Q31.03-12.40 31.03-11.94L31.03-11.94L31.03-11.94Q31.03-10.78 31.03-9.51L31.03-9.51L31.03-9.51Q31.03-8.24 31.34-7.24L31.34-7.24L31.34-7.24Q31.65-6.24 32.42-5.70L32.42-5.70L32.42-5.70Q33.19-5.16 34.73-5.39L34.73-5.39L34.73-5.39Q34.80-5.39 35.11-5.51L35.11-5.51L35.11-5.51Q35.42-5.62 35.73-5.74L35.73-5.74L35.73-5.74Q36.04-5.85 36.31-5.93L36.31-5.93L36.31-5.93Q36.58-6.01 36.65-6.01L36.65-6.01L36.65-6.01Q36.73-5.85 36.54-5.62L36.54-5.62L36.54-5.62Q36.34-5.39 36.04-5.12L36.04-5.12L36.04-5.12Q35.73-4.85 35.46-4.62L35.46-4.62L35.46-4.62Q35.19-4.39 35.11-4.31L35.11-4.31L35.11-4.31Q33.19-3.16 31.88-3.62L31.88-3.62L31.88-3.62Q30.57-4.08 29.84-5.35L29.84-5.35L29.84-5.35Q29.11-6.62 28.84-8.35L28.84-8.35L28.84-8.35Q28.57-10.09 28.64-11.47L28.64-11.47L28.64-11.47Q28.80-14.17 29.49-16.82L29.49-16.82L29.49-16.82Q30.18-19.48 31.26-22.18L31.26-22.18L31.26-22.18Q32.11-24.25 33.80-26.45L33.80-26.45L33.80-26.45Q35.50-28.64 37.61-30.49L37.61-30.49L37.61-30.49Q39.73-32.34 42.04-33.53L42.04-33.53L42.04-33.53Q44.35-34.73 46.51-34.80L46.51-34.80L46.51-34.80Q47.28-34.80 47.36-34.73ZM51.90-0.15L51.90-0.15L51.90-0.15Q52.05 0.08 51.98 0.15L51.98 0.15L51.98 0.15Q51.74 0.15 51.36 0L51.36 0L51.36 0Q51.13-0.15 50.13-0.92L50.13-0.92L50.13-0.92Q49.13-1.69 48.66-3.39L48.66-3.39L48.66-3.39Q48.51-4.00 48.39-4.97L48.39-4.97L48.39-4.97Q48.28-5.93 48.28-6.78L48.28-6.78L48.28-6.78Q48.28-7.62 48.39-8.24L48.39-8.24L48.39-8.24Q48.51-8.86 48.74-8.86L48.74-8.86L48.74-8.86Q48.97-8.86 49.24-7.93L49.24-7.93L49.24-7.93Q49.51-7.01 49.59-6.78L49.59-6.78L49.59-6.78Q49.82-5.70 50.01-4.89L50.01-4.89L50.01-4.89Q50.20-4.08 50.44-3.39L50.44-3.39L50.44-3.39Q50.74-2.54 51.24-1.46L51.24-1.46L51.24-1.46Q51.74-0.39 51.90-0.15ZM88.01-35.96L88.01-35.96L88.01-35.96Q88.32-34.73 88.13-33.49L88.13-33.49L88.13-33.49Q87.93-32.26 87.51-31.18L87.51-31.18L87.51-31.18Q87.09-30.11 86.43-29.30L86.43-29.30L86.43-29.30Q85.78-28.49 85.16-28.03L85.16-28.03L85.16-28.03Q83.31-26.72 81.00-25.60L81.00-25.60L81.00-25.60Q78.69-24.49 76.46-23.64L76.46-23.64L76.46-23.64Q76.31-23.56 75.92-23.45L75.92-23.45L75.92-23.45Q75.54-23.33 75.38-23.56L75.38-23.56L75.38-23.56Q75.31-23.64 75.50-23.95L75.50-23.95L75.50-23.95Q75.69-24.25 75.77-24.33L75.77-24.33L75.77-24.33Q76.54-25.26 77.85-26.33L77.85-26.33L77.85-26.33Q79.16-27.41 80.16-28.03L80.16-28.03L80.16-28.03Q80.47-28.26 81.66-29.18L81.66-29.18L81.66-29.18Q82.85-30.11 84.12-31.38L84.12-31.38L84.12-31.38Q85.39-32.65 86.47-33.96L86.47-33.96L86.47-33.96Q87.55-35.27 87.63-36.19L87.63-36.19L87.63-36.19Q87.63-36.34 87.66-36.38L87.66-36.38L87.66-36.38Q87.70-36.42 87.70-36.50L87.70-36.50L87.70-36.50Q87.70-36.58 87.78-36.58L87.78-36.58L87.78-36.58Q87.93-36.50 87.97-36.31L87.97-36.31L87.97-36.31Q88.01-36.11 88.01-35.96ZM73.53-42.20L73.53-42.20L73.53-42.20Q72.46-37.50 70.69-32.69L70.69-32.69L70.69-32.69Q68.91-27.87 66.91-23.72L66.91-23.72L66.91-23.72Q66.76-23.33 66.49-22.68L66.49-22.68L66.49-22.68Q66.22-22.02 65.99-22.02L65.99-22.02L65.99-22.02Q65.83-22.18 65.87-22.83L65.87-22.83L65.87-22.83Q65.91-23.48 65.99-23.72L65.99-23.72L65.99-23.72Q66.22-24.87 66.60-26.64L66.60-26.64L66.60-26.64Q66.99-28.41 67.49-30.41L67.49-30.41L67.49-30.41Q67.99-32.42 68.49-34.34L68.49-34.34L68.49-34.34Q68.99-36.27 69.45-37.73L69.45-37.73L69.45-37.73Q70.99-42.89 71.46-47.93L71.46-47.93L71.46-47.93Q71.92-52.98 71.07-57.60L71.07-57.60L71.07-57.60Q70.99-57.90 71.03-58.06L71.03-58.06L71.03-58.06Q71.07-58.21 71.07-58.29L71.07-58.29L71.07-58.29Q71.46-58.44 71.76-57.83L71.76-57.83L71.76-57.83Q72.69-56.59 73.23-54.63L73.23-54.63L73.23-54.63Q73.77-52.67 73.96-50.47L73.96-50.47L73.96-50.47Q74.15-48.28 74.04-46.08L74.04-46.08L74.04-46.08Q73.92-43.89 73.53-42.20ZM69.07-59.52L69.07-59.52L69.07-59.52Q70.61-55.75 70.45-51.47L70.45-51.47L70.45-51.47Q70.30-47.20 69.22-42.66L69.22-42.66L69.22-42.66Q68.14-38.12 66.57-33.46L66.57-33.46L66.57-33.46Q64.99-28.80 63.68-24.25L63.68-24.25L63.68-24.25Q62.83-21.41 62.33-18.21L62.33-18.21L62.33-18.21Q61.83-15.02 61.83-11.82L61.83-11.82L61.83-11.82Q61.83-8.62 62.45-5.62L62.45-5.62L62.45-5.62Q63.06-2.62 64.53-0.08L64.53-0.08L64.53-0.08Q64.76 0.31 64.49 0.23L64.49 0.23L64.49 0.23Q64.22 0.15 64.06 0L64.06 0L64.06 0Q62.14-2.39 61.18-5.51L61.18-5.51L61.18-5.51Q60.21-8.62 60.02-12.09L60.02-12.09L60.02-12.09Q59.83-15.55 60.29-19.17L60.29-19.17L60.29-19.17Q60.75-22.79 61.68-26.03L61.68-26.03L61.68-26.03Q63.06-30.57 64.49-35.03L64.49-35.03L64.49-35.03Q65.91-39.50 66.99-43.74L66.99-43.74L66.99-43.74Q68.07-47.97 68.57-51.94L68.57-51.94L68.57-51.94Q69.07-55.90 68.53-59.52L68.53-59.52L68.53-59.52Q68.53-59.67 68.49-59.87L68.49-59.87L68.49-59.87Q68.45-60.06 68.61-60.06L68.61-60.06L68.61-60.06Q68.76-60.06 68.88-59.87L68.88-59.87L68.88-59.87Q68.99-59.67 69.07-59.52ZM89.47-1.93L89.47-1.93L89.47-1.93Q90.09-1.77 89.94-1.54L89.94-1.54L89.94-1.54Q89.78-1.31 89.55-1.23L89.55-1.23L89.55-1.23Q87.16-0.62 84.93-1.00L84.93-1.00L84.93-1.00Q82.70-1.39 81.23-2.46L81.23-2.46L81.23-2.46Q79.31-3.85 77.89-6.08L77.89-6.08L77.89-6.08Q76.46-8.32 75.15-10.32L75.15-10.32L75.15-10.32Q75.07-10.47 74.92-10.74L74.92-10.74L74.92-10.74Q74.77-11.01 74.84-11.16L74.84-11.16L74.84-11.16Q75.00-11.40 75.27-11.28L75.27-11.28L75.27-11.28Q75.54-11.16 75.61-11.09L75.61-11.09L75.61-11.09Q76.61-10.63 78.04-9.63L78.04-9.63L78.04-9.63Q79.46-8.62 80.16-7.78L80.16-7.78L80.16-7.78Q80.77-7.08 81.85-6.12L81.85-6.12L81.85-6.12Q82.93-5.16 84.20-4.31L84.20-4.31L84.20-4.31Q85.47-3.46 86.86-2.77L86.86-2.77L86.86-2.77Q88.24-2.08 89.47-1.93ZM91.94-3.62L91.94-3.62L91.94-3.62Q92.32-3.54 92.13-3.39L92.13-3.39L92.13-3.39Q91.94-3.23 91.63-3.23L91.63-3.23L91.63-3.23Q89.17-2.77 87.24-3.73L87.24-3.73L87.24-3.73Q85.32-4.70 83.66-6.28L83.66-6.28L83.66-6.28Q82.00-7.85 80.43-9.70L80.43-9.70L80.43-9.70Q78.85-11.55 77.08-13.01L77.08-13.01L77.08-13.01Q74.84-14.78 71.57-15.55L71.57-15.55L71.57-15.55Q68.30-16.32 64.53-14.86L64.53-14.86L64.53-14.86Q64.14-14.71 64.22-14.94L64.22-14.94L64.22-14.94Q64.30-15.17 64.45-15.32L64.45-15.32L64.45-15.32Q65.14-15.79 65.91-16.21L65.91-16.21L65.91-16.21Q66.68-16.63 67.38-16.86L67.38-16.86L67.38-16.86Q68.30-20.94 69.61-24.99L69.61-24.99L69.61-24.99Q70.92-29.03 72.23-33.26L72.23-33.26L72.23-33.26Q73.46-37.19 74.46-41.50L74.46-41.50L74.46-41.50Q75.46-45.81 75.31-50.67L75.31-50.67L75.31-50.67Q75.31-51.13 75.46-51.13L75.46-51.13L75.46-51.13Q75.61-51.13 75.65-50.90L75.65-50.90L75.65-50.90Q75.69-50.67 75.84-50.51L75.84-50.51L75.84-50.51Q76.61-48.89 76.61-46.20L76.61-46.20L76.61-46.20Q76.61-43.51 76.15-40.39L76.15-40.39L76.15-40.39Q75.69-37.27 74.92-34.03L74.92-34.03L74.92-34.03Q74.15-30.80 73.38-28.18L73.38-28.18L73.38-28.18Q74.92-29.80 76.81-30.92L76.81-30.92L76.81-30.92Q78.69-32.03 80.58-33.07L80.58-33.07L80.58-33.07Q82.47-34.11 84.08-35.42L84.08-35.42L84.08-35.42Q85.70-36.73 86.70-38.73L86.70-38.73L86.70-38.73Q86.70-38.81 86.74-38.88L86.74-38.88L86.74-38.88Q86.78-38.96 86.86-38.81L86.86-38.81L86.86-38.81Q86.86-38.73 86.89-38.58L86.89-38.58L86.89-38.58Q86.93-38.42 86.93-38.27L86.93-38.27L86.93-38.27Q86.78-35.80 85.47-34.15L85.47-34.15L85.47-34.15Q84.16-32.49 82.31-31.18L82.31-31.18L82.31-31.18Q80.47-29.88 78.31-28.72L78.31-28.72L78.31-28.72Q76.15-27.57 74.30-26.18L74.30-26.18L74.30-26.18Q72.07-24.49 71.30-22.10L71.30-22.10L71.30-22.10Q70.53-19.71 69.99-17.40L69.99-17.40L69.99-17.40Q70.38-17.94 70.80-18.60L70.80-18.60L70.80-18.60Q71.22-19.25 71.61-19.83L71.61-19.83L71.61-19.83Q71.99-20.41 72.30-20.71L72.30-20.71L72.30-20.71Q72.61-21.02 72.77-20.87L72.77-20.87L72.77-20.87Q72.84-20.79 72.73-20.37L72.73-20.37L72.73-20.37Q72.61-19.94 72.46-19.40L72.46-19.40L72.46-19.40Q72.30-18.86 72.15-18.33L72.15-18.33L72.15-18.33Q71.99-17.79 71.92-17.48L71.92-17.48L71.92-17.48Q72.30-17.40 72.57-17.40L72.57-17.40L72.57-17.40Q72.84-17.40 73.07-17.32L73.07-17.32L73.07-17.32Q74.84-19.87 77.23-21.60L77.23-21.60L77.23-21.60Q79.62-23.33 82.24-24.87L82.24-24.87L82.24-24.87Q84.01-25.95 85.66-27.18L85.66-27.18L85.66-27.18Q87.32-28.41 88.63-30.41L88.63-30.41L88.63-30.41Q88.70-30.65 88.86-30.49L88.86-30.49L88.86-30.49Q88.94-30.41 88.90-30.30L88.90-30.30L88.90-30.30Q88.86-30.18 88.94-29.95L88.94-29.95L88.94-29.95Q89.01-28.34 88.01-26.87L88.01-26.87L88.01-26.87Q87.01-25.41 85.55-24.18L85.55-24.18L85.55-24.18Q84.08-22.95 82.54-21.95L82.54-21.95L82.54-21.95Q81.00-20.94 80.16-20.25L80.16-20.25L80.16-20.25Q78.92-19.33 77.46-18.52L77.46-18.52L77.46-18.52Q76.00-17.71 74.69-17.02L74.69-17.02L74.69-17.02Q77-16.25 79.00-14.55L79.00-14.55L79.00-14.55Q80.77-13.17 82.31-11.43L82.31-11.43L82.31-11.43Q83.85-9.70 85.39-8.08L85.39-8.08L85.39-8.08Q86.93-6.47 88.51-5.24L88.51-5.24L88.51-5.24Q90.09-4.00 91.94-3.62ZM67.76-10.93L67.76-10.93L67.76-10.93Q67.61-10.47 67.34-9.63L67.34-9.63L67.34-9.63Q67.07-8.78 66.91-8.01L66.91-8.01L66.91-8.01Q66.76-7.62 66.72-7.24L66.72-7.24L66.72-7.24Q66.68-6.85 66.53-6.93L66.53-6.93L66.53-6.93Q66.30-7.01 66.18-7.55L66.18-7.55L66.18-7.55Q66.07-8.08 66.07-8.47L66.07-8.47L66.07-8.47Q66.07-9.01 66.07-9.70L66.07-9.70L66.07-9.70Q66.07-10.39 66.18-10.97L66.18-10.97L66.18-10.97Q66.30-11.55 66.64-11.94L66.64-11.94L66.64-11.94Q66.99-12.32 67.68-12.32L67.68-12.32L67.68-12.32Q68.68-12.24 69.88-11.59L69.88-11.59L69.88-11.59Q71.07-10.93 72.30-9.89L72.30-9.89L72.30-9.89Q73.53-8.86 74.77-7.58L74.77-7.58L74.77-7.58Q76.00-6.31 77.23-5.00L77.23-5.00L77.23-5.00Q78.54-3.54 80.12-2.04L80.12-2.04L80.12-2.04Q81.70-0.54 83.93 0.08L83.93 0.08L83.93 0.08Q84.24 0.23 84.24 0.35L84.24 0.35L84.24 0.35Q84.24 0.46 83.85 0.46L83.85 0.46L83.85 0.46Q82.31 0.46 80.73-0.19L80.73-0.19L80.73-0.19Q79.16-0.85 77.65-1.81L77.65-1.81L77.65-1.81Q76.15-2.77 74.88-3.85L74.88-3.85L74.88-3.85Q73.61-4.93 72.69-5.78L72.69-5.78L72.69-5.78Q71.38-7.01 70.11-8.39L70.11-8.39L70.11-8.39Q68.84-9.78 67.76-10.93ZM66.84-0.08L66.84-0.08L66.84-0.08Q66.99 0.15 66.80 0.23L66.80 0.23L66.80 0.23Q66.60 0.31 66.22 0L66.22 0L66.22 0Q65.30-0.85 64.53-2.04L64.53-2.04L64.53-2.04Q63.76-3.23 63.37-5.70L63.37-5.70L63.37-5.70Q63.06-7.16 62.95-8.82L62.95-8.82L62.95-8.82Q62.83-10.47 63.22-11.78L63.22-11.78L63.22-11.78Q63.60-13.09 64.68-13.98L64.68-13.98L64.68-13.98Q65.76-14.86 67.84-14.86L67.84-14.86L67.84-14.86Q68.38-14.86 69.07-14.71L69.07-14.71L69.07-14.71Q69.76-14.55 70.34-14.36L70.34-14.36L70.34-14.36Q70.92-14.17 71.26-13.90L71.26-13.90L71.26-13.90Q71.61-13.63 71.38-13.40L71.38-13.40L71.38-13.40Q71.30-13.17 70.57-13.24L70.57-13.24L70.57-13.24Q69.84-13.32 69.69-13.32L69.69-13.32L69.69-13.32Q68.76-13.47 67.88-13.51L67.88-13.51L67.88-13.51Q66.99-13.55 66.30-13.32L66.30-13.32L66.30-13.32Q65.60-13.09 65.18-12.44L65.18-12.44L65.18-12.44Q64.76-11.78 64.76-10.55L64.76-10.55L64.76-10.55Q64.76-7.93 65.22-5.62L65.22-5.62L65.22-5.62Q65.53-4.08 65.87-2.73L65.87-2.73L65.87-2.73Q66.22-1.39 66.84-0.08ZM113.42-31.42L113.42-31.42L113.42-31.42Q114.04-30.65 114.38-29.49L114.38-29.49L114.38-29.49Q114.73-28.34 114.65-26.99L114.65-26.99L114.65-26.99Q114.58-25.64 114.04-24.18L114.04-24.18L114.04-24.18Q113.50-22.71 112.34-21.33L112.34-21.33L112.34-21.33Q110.11-18.71 107.45-17.29L107.45-17.29L107.45-17.29Q104.80-15.86 102.64-15.86L102.64-15.86L102.64-15.86Q101.33-15.86 102.64-16.32L102.64-16.32L102.64-16.32Q103.33-16.55 104.30-17.06L104.30-17.06L104.30-17.06Q105.26-17.56 106.34-18.29L106.34-18.29L106.34-18.29Q107.41-19.02 108.53-20.02L108.53-20.02L108.53-20.02Q109.65-21.02 110.57-22.33L110.57-22.33L110.57-22.33Q112.11-24.49 112.38-26.53L112.38-26.53L112.38-26.53Q112.65-28.57 111.57-29.64L111.57-29.64L111.57-29.64Q110.65-30.57 109.42-30.68L109.42-30.68L109.42-30.68Q108.19-30.80 105.72-29.34L105.72-29.34L105.72-29.34Q103.49-28.03 101.72-26.10L101.72-26.10L101.72-26.10Q99.95-24.18 98.41-22.02L98.41-22.02L98.41-22.02Q97.56-20.94 97.29-20.94L97.29-20.94L97.29-20.94Q97.02-20.94 97.48-22.33L97.48-22.33L97.48-22.33Q98.41-25.02 100.06-27.34L100.06-27.34L100.06-27.34Q101.72-29.64 104.03-31.26L104.03-31.26L104.03-31.26Q105.72-32.42 107.15-32.88L107.15-32.88L107.15-32.88Q108.57-33.34 109.76-33.26L109.76-33.26L109.76-33.26Q110.96-33.19 111.88-32.69L111.88-32.69L111.88-32.69Q112.80-32.19 113.42-31.42ZM117.58-26.03L117.58-26.03L117.58-26.03Q117.27-24.18 116.62-22.91L116.62-22.91L116.62-22.91Q115.96-21.64 115.15-20.75L115.15-20.75L115.15-20.75Q114.34-19.87 113.54-19.33L113.54-19.33L113.54-19.33Q112.73-18.79 112.11-18.33L112.11-18.33L112.11-18.33Q111.80-18.09 111.65-18.25L111.65-18.25L111.65-18.25Q111.50-18.40 111.88-18.79L111.88-18.79L111.88-18.79Q113.27-19.94 114.69-21.91L114.69-21.91L114.69-21.91Q116.12-23.87 116.19-26.26L116.19-26.26L116.19-26.26Q116.19-30.34 114.19-32.49L114.19-32.49L114.19-32.49Q112.19-34.65 109.19-34.38L109.19-34.38L109.19-34.38Q106.18-34.11 102.95-32.03L102.95-32.03L102.95-32.03Q100.87-30.72 99.29-28.99L99.29-28.99L99.29-28.99Q97.71-27.26 96.56-25.29L96.56-25.29L96.56-25.29Q95.40-23.33 94.67-21.25L94.67-21.25L94.67-21.25Q93.94-19.17 93.63-17.09L93.63-17.09L93.63-17.09Q93.32-15.09 93.05-12.78L93.05-12.78L93.05-12.78Q92.78-10.47 93.05-8.24L93.05-8.24L93.05-8.24Q93.32-6.01 94.48-3.97L94.48-3.97L94.48-3.97Q95.63-1.93 98.10-0.46L98.10-0.46L98.10-0.46Q98.48-0.23 98.91-0.15L98.91-0.15L98.91-0.15Q99.33-0.08 99.33 0L99.33 0L99.33 0Q99.33 0.15 98.94 0.19L98.94 0.19L98.94 0.19Q98.56 0.23 98.10 0.08L98.10 0.08L98.10 0.08Q96.17-0.31 94.83-1.50L94.83-1.50L94.83-1.50Q93.48-2.69 92.63-4.24L92.63-4.24L92.63-4.24Q91.78-5.78 91.32-7.47L91.32-7.47L91.32-7.47Q90.86-9.16 90.78-10.55L90.78-10.55L90.78-10.55Q90.32-16.63 92.48-22.56L92.48-22.56L92.48-22.56Q92.94-23.79 93.67-25.33L93.67-25.33L93.67-25.33Q94.40-26.87 95.48-28.45L95.48-28.45L95.48-28.45Q96.56-30.03 98.02-31.53L98.02-31.53L98.02-31.53Q99.48-33.03 101.33-34.19L101.33-34.19L101.33-34.19Q103.10-35.27 105.03-35.80L105.03-35.80L105.03-35.80Q106.95-36.34 108.88-36.31L108.88-36.31L108.88-36.31Q110.80-36.27 112.50-35.61L112.50-35.61L112.50-35.61Q114.19-34.96 115.50-33.65L115.50-33.65L115.50-33.65Q116.66-32.42 117.31-30.49L117.31-30.49L117.31-30.49Q117.96-28.57 117.58-26.03ZM110.57-28.80L110.57-28.80L110.57-28.80Q111.50-27.72 110.80-25.45L110.80-25.45L110.80-25.45Q110.11-23.18 107.57-20.87L107.57-20.87L107.57-20.87Q106.18-19.56 104.87-18.75L104.87-18.75L104.87-18.75Q103.56-17.94 101.56-17.32L101.56-17.32L101.56-17.32Q100.72-14.40 100.48-11.55L100.48-11.55L100.48-11.55Q100.25-8.70 100.64-6.93L100.64-6.93L100.64-6.93Q100.72-6.24 101.14-5.58L101.14-5.58L101.14-5.58Q101.56-4.93 102.37-4.58L102.37-4.58L102.37-4.58Q103.18-4.24 104.49-4.31L104.49-4.31L104.49-4.31Q105.80-4.39 107.72-5.16L107.72-5.16L107.72-5.16Q108.26-5.39 108.38-5.27L108.38-5.27L108.38-5.27Q108.49-5.16 107.88-4.77L107.88-4.77L107.88-4.77Q106.49-3.70 104.95-3.27L104.95-3.27L104.95-3.27Q103.41-2.85 102.06-3.00L102.06-3.00L102.06-3.00Q100.72-3.16 99.75-3.93L99.75-3.93L99.75-3.93Q98.79-4.70 98.48-6.01L98.48-6.01L98.48-6.01Q97.87-8.70 97.94-11.63L97.94-11.63L97.94-11.63Q98.02-14.55 98.83-17.40L98.83-17.40L98.83-17.40Q99.64-20.25 101.14-22.75L101.14-22.75L101.14-22.75Q102.64-25.26 104.87-27.03L104.87-27.03L104.87-27.03Q109.03-30.34 110.57-28.80ZM109.80-4.24L109.80-4.24L109.80-4.24Q109.26-3.46 108.45-2.73L108.45-2.73L108.45-2.73Q107.65-2.00 106.61-1.42L106.61-1.42L106.61-1.42Q105.57-0.85 104.45-0.46L104.45-0.46L104.45-0.46Q103.33-0.08 102.18-0.08L102.18-0.08L102.18-0.08Q100.18-0.08 98.44-0.96L98.44-0.96L98.44-0.96Q96.71-1.85 95.79-4.54L95.79-4.54L95.79-4.54Q95.63-4.85 95.63-5.12L95.63-5.12L95.63-5.12Q95.63-5.39 95.79-5.39L95.79-5.39L95.79-5.39Q96.10-5.54 96.40-5.20L96.40-5.20L96.40-5.20Q96.71-4.85 97.02-4.47L97.02-4.47L97.02-4.47Q97.87-3.46 99.21-2.69L99.21-2.69L99.21-2.69Q100.56-1.93 101.79-1.93L101.79-1.93L101.79-1.93Q104.10-1.93 105.80-2.62L105.80-2.62L105.80-2.62Q107.49-3.31 109.03-4.47L109.03-4.47L109.03-4.47Q109.42-4.70 109.92-4.93L109.92-4.93L109.92-4.93Q110.42-5.16 109.80-4.24ZM108.72-26.72L108.72-26.72L108.72-26.72Q108.42-27.34 106.49-25.72L106.49-25.72L106.49-25.72Q104.72-24.33 103.68-22.52L103.68-22.52L103.68-22.52Q102.64-20.71 101.87-18.56L101.87-18.56L101.87-18.56Q103.33-19.25 104.57-20.14L104.57-20.14L104.57-20.14Q105.80-21.02 106.88-21.87L106.88-21.87L106.88-21.87Q108.03-22.87 108.57-24.49L108.57-24.49L108.57-24.49Q109.11-26.10 108.72-26.72ZM158.85-24.33L158.85-24.33L158.85-24.33Q157.93-21.48 156.66-18.86L156.66-18.86L156.66-18.86Q155.39-16.25 154.00-13.63L154.00-13.63L154.00-13.63Q153.85-13.47 153.54-12.90L153.54-12.90L153.54-12.90Q153.23-12.32 153.00-12.47L153.00-12.47L153.00-12.47Q152.84-12.47 152.88-12.94L152.88-12.94L152.88-12.94Q152.92-13.40 152.92-13.63L152.92-13.63L152.92-13.63Q153.00-14.24 153.27-15.40L153.27-15.40L153.27-15.40Q153.54-16.55 153.88-17.83L153.88-17.83L153.88-17.83Q154.23-19.10 154.58-20.29L154.58-20.29L154.58-20.29Q154.92-21.48 155.15-22.18L155.15-22.18L155.15-22.18Q156.46-26.33 156.85-29.57L156.85-29.57L156.85-29.57Q157.23-32.80 156.39-35.03L156.39-35.03L156.39-35.03Q156.23-35.42 156.39-35.42L156.39-35.42L156.39-35.42Q156.54-35.42 156.69-35.27L156.69-35.27L156.69-35.27Q156.85-35.11 156.93-35.03L156.93-35.03L156.93-35.03Q157.77-34.11 158.31-32.69L158.31-32.69L158.31-32.69Q158.85-31.26 159.08-29.76L159.08-29.76L159.08-29.76Q159.31-28.26 159.24-26.80L159.24-26.80L159.24-26.80Q159.16-25.33 158.85-24.33ZM160.93-29.88L160.93-29.88L160.93-29.88Q161.93-28.34 161.85-26.03L161.85-26.03L161.85-26.03Q161.78-23.72 161.28-21.25L161.28-21.25L161.28-21.25Q160.78-18.79 160.04-16.55L160.04-16.55L160.04-16.55Q159.31-14.32 158.93-13.01L158.93-13.01L158.93-13.01Q158.16-10.47 157.08-7.82L157.08-7.82L157.08-7.82Q156.00-5.16 155.15-3.23L155.15-3.23L155.15-3.23Q154.85-2.54 154.69-2.62L154.69-2.62L154.69-2.62Q154.46-2.69 154.42-2.96L154.42-2.96L154.42-2.96Q154.38-3.23 154.38-3.39L154.38-3.39L154.38-3.39Q154.38-7.55 155.58-11.40L155.58-11.40L155.58-11.40Q156.77-15.25 158.16-19.17L158.16-19.17L158.16-19.17Q159.00-21.71 159.70-24.22L159.70-24.22L159.70-24.22Q160.39-26.72 160.39-29.72L160.39-29.72L160.39-29.72Q160.39-30.26 160.54-30.26L160.54-30.26L160.54-30.26Q160.62-30.26 160.70-30.15L160.70-30.15L160.70-30.15Q160.78-30.03 160.93-29.88ZM145.53-5.70L145.53-5.70L145.53-5.70Q145.68-5.47 144.99-5.00L144.99-5.00L144.99-5.00Q144.30-4.54 144.07-4.47L144.07-4.47L144.07-4.47Q140.68-3.23 138.79-4.39L138.79-4.39L138.79-4.39Q136.91-5.54 136.10-7.85L136.10-7.85L136.10-7.85Q135.29-10.16 135.29-12.97L135.29-12.97L135.29-12.97Q135.29-15.79 135.60-18.02L135.60-18.02L135.60-18.02Q135.83-19.94 136.48-22.29L136.48-22.29L136.48-22.29Q137.14-24.64 138.06-26.91L138.06-26.91L138.06-26.91Q138.98-29.18 140.18-31.15L140.18-31.15L140.18-31.15Q141.37-33.11 142.76-34.19L142.76-34.19L142.76-34.19Q142.91-34.27 143.10-34.42L143.10-34.42L143.10-34.42Q143.30-34.57 143.45-34.57L143.45-34.57L143.45-34.57Q143.68-34.50 143.22-33.73L143.22-33.73L143.22-33.73Q142.76-32.96 142.10-31.57L142.10-31.57L142.10-31.57Q141.45-30.18 140.76-28.37L140.76-28.37L140.76-28.37Q140.06-26.57 139.41-24.56L139.41-24.56L139.41-24.56Q138.75-22.56 138.37-20.56L138.37-20.56L138.37-20.56Q137.98-18.56 137.83-16.71L137.83-16.71L137.83-16.71Q137.68-14.86 137.68-13.40L137.68-13.40L137.68-13.40Q137.68-11.94 137.75-10.93L137.75-10.93L137.75-10.93Q137.83-9.93 137.91-9.63L137.91-9.63L137.91-9.63Q138.45-7.24 139.95-6.12L139.95-6.12L139.95-6.12Q141.45-5.00 143.99-5.47L143.99-5.47L143.99-5.47Q144.07-5.47 144.76-5.62L144.76-5.62L144.76-5.62Q145.45-5.78 145.53-5.70ZM155.46 0.23L155.46 0.23L155.46 0.23Q155.77 0.54 155.77 0.69L155.77 0.69L155.77 0.69Q155.77 0.85 155.42 0.77L155.42 0.77L155.42 0.77Q155.08 0.69 154.92 0.62L154.92 0.62L154.92 0.62Q154.31 0.31 153.38-0.27L153.38-0.27L153.38-0.27Q152.46-0.85 152.00-2.31L152.00-2.31L152.00-2.31Q151.77-2.93 151.69-3.81L151.69-3.81L151.69-3.81Q151.61-4.70 151.61-5.47L151.61-5.47L151.61-5.47Q151.61-6.24 151.77-6.74L151.77-6.74L151.77-6.74Q151.92-7.24 152.15-7.16L152.15-7.16L152.15-7.16Q152.31-7.08 152.50-6.47L152.50-6.47L152.50-6.47Q152.69-5.85 152.84-5.16L152.84-5.16L152.84-5.16Q153.00-4.31 153.23-3.58L153.23-3.58L153.23-3.58Q153.46-2.85 153.77-2.08L153.77-2.08L153.77-2.08Q154.15-1.23 154.54-0.73L154.54-0.73L154.54-0.73Q154.92-0.23 155.46 0.23ZM148.38-4.00L148.38-4.00L148.38-4.00Q147.53-2.69 145.80-1.35L145.80-1.35L145.80-1.35Q144.07 0 141.14 0L141.14 0L141.14 0Q138.83 0 137.18-1.23L137.18-1.23L137.18-1.23Q135.52-2.46 134.48-4.31L134.48-4.31L134.48-4.31Q133.44-6.16 133.02-8.35L133.02-8.35L133.02-8.35Q132.59-10.55 132.59-12.55L132.59-12.55L132.59-12.55Q132.67-15.02 133.02-17.48L133.02-17.48L133.02-17.48Q133.36-19.94 133.94-22.10L133.94-22.10L133.94-22.10Q134.52-24.25 135.25-25.95L135.25-25.95L135.25-25.95Q135.98-27.64 136.75-28.72L136.75-28.72L136.75-28.72Q136.91-28.80 137.10-29.07L137.10-29.07L137.10-29.07Q137.29-29.34 137.44-29.18L137.44-29.18L137.44-29.18Q137.52-29.11 137.41-28.84L137.41-28.84L137.41-28.84Q137.29-28.57 137.21-28.41L137.21-28.41L137.21-28.41Q136.52-26.10 135.87-23.52L135.87-23.52L135.87-23.52Q135.21-20.94 134.83-18.33L134.83-18.33L134.83-18.33Q134.44-15.71 134.44-13.17L134.44-13.17L134.44-13.17Q134.44-10.63 134.90-8.47L134.90-8.47L134.90-8.47Q135.21-7.01 136.02-5.78L136.02-5.78L136.02-5.78Q136.83-4.54 137.79-3.70L137.79-3.70L137.79-3.70Q138.75-2.85 139.87-2.46L139.87-2.46L139.87-2.46Q140.99-2.08 142.06-2.23L142.06-2.23L142.06-2.23Q144.30-2.54 145.45-3.50L145.45-3.50L145.45-3.50Q146.61-4.47 147.11-5.81L147.11-5.81L147.11-5.81Q147.61-7.16 147.72-8.74L147.72-8.74L147.72-8.74Q147.84-10.32 148.07-11.94L148.07-11.94L148.07-11.94Q147.69-10.86 146.57-9.82L146.57-9.82L146.57-9.82Q145.45-8.78 144.18-8.20L144.18-8.20L144.18-8.20Q142.91-7.62 141.72-7.70L141.72-7.70L141.72-7.70Q140.52-7.78 139.91-9.09L139.91-9.09L139.91-9.09Q139.14-10.78 139.06-12.78L139.06-12.78L139.06-12.78Q138.98-14.78 139.14-17.17L139.14-17.17L139.14-17.17Q139.29-19.56 139.83-22.10L139.83-22.10L139.83-22.10Q140.37-24.64 141.29-26.99L141.29-26.99L141.29-26.99Q142.22-29.34 143.49-31.42L143.49-31.42L143.49-31.42Q144.76-33.49 146.38-35.11L146.38-35.11L146.68-35.42L146.68-35.42Q146.92-35.65 147.15-35.65L147.15-35.65L147.15-35.65Q147.15-35.65 146.84-34.88L146.84-34.88L146.84-34.88Q144.61-30.72 143.07-26.30L143.07-26.30L143.07-26.30Q141.53-21.87 141.22-17.32L141.22-17.32L141.22-17.32Q140.83-12.32 141.72-10.78L141.72-10.78L141.72-10.78Q142.60-9.24 143.91-9.89L143.91-9.89L143.91-9.89Q145.22-10.55 146.72-12.74L146.72-12.74L146.72-12.74Q148.22-14.94 149.15-17.48L149.15-17.48L149.15-17.48Q150.00-19.79 150.96-22.25L150.96-22.25L150.96-22.25Q151.92-24.72 152.73-27.22L152.73-27.22L152.73-27.22Q153.54-29.72 153.96-32.11L153.96-32.11L153.96-32.11Q154.38-34.50 154.15-36.58L154.15-36.58L154.15-36.58Q154.15-36.96 154.31-36.96L154.31-36.96L154.31-36.96Q154.38-36.96 154.38-36.88L154.38-36.88L154.38-36.88Q154.38-36.73 154.46-36.73L154.46-36.73L154.46-36.73Q154.54-36.65 154.54-36.58L154.54-36.58L154.54-36.58Q155.77-33.96 155.66-31.26L155.66-31.26L155.66-31.26Q155.54-28.57 154.73-25.79L154.73-25.79L154.73-25.79Q153.92-23.02 152.81-20.14L152.81-20.14L152.81-20.14Q151.69-17.25 150.92-14.32L150.92-14.32L150.92-14.32Q150.46-12.47 150.23-10.43L150.23-10.43L150.23-10.43Q150.00-8.39 150.15-6.39L150.15-6.39L150.15-6.39Q150.30-4.39 151.00-2.58L151.00-2.58L151.00-2.58Q151.69-0.77 153.00 0.46L153.00 0.46L153.00 0.46Q153.15 0.62 153.15 0.69L153.15 0.69L153.15 0.69Q153.15 0.85 152.96 0.81L152.96 0.81L152.96 0.81Q152.77 0.77 152.61 0.69L152.61 0.69L152.61 0.69Q151.15 0.15 150.07-1.08L150.07-1.08L150.07-1.08Q148.99-2.31 148.38-4.00ZM172.17-28.41L172.17-28.41L172.17-28.41Q172.25-29.11 172.63-30.07L172.63-30.07L172.63-30.07Q173.02-31.03 173.67-31.92L173.67-31.92L173.67-31.92Q174.33-32.80 175.25-33.53L175.25-33.53L175.25-33.53Q176.18-34.27 177.33-34.50L177.33-34.50L177.33-34.50Q179.79-34.96 181.41-34.19L181.41-34.19L181.41-34.19Q183.03-33.42 183.88-32.42L183.88-32.42L183.88-32.42Q184.18-31.95 184.11-31.88L184.11-31.88L184.11-31.88Q183.95-31.72 183.57-31.95L183.57-31.95L183.57-31.95Q183.11-32.26 182.07-32.49L182.07-32.49L182.07-32.49Q181.03-32.73 179.83-32.61L179.83-32.61L179.83-32.61Q178.64-32.49 177.52-31.88L177.52-31.88L177.52-31.88Q176.41-31.26 175.71-29.88L175.71-29.88L175.71-29.88Q175.10-28.57 174.87-27.18L174.87-27.18L174.87-27.18Q174.64-25.79 174.60-24.60L174.60-24.60L174.60-24.60Q174.56-23.41 174.64-22.56L174.64-22.56L174.64-22.56Q174.71-21.71 174.71-21.41L174.71-21.41L174.71-21.41Q174.87-20.56 174.98-19.29L174.98-19.29L174.98-19.29Q175.10-18.02 175.10-16.71L175.10-16.71L175.10-16.71Q175.10-15.40 175.02-14.13L175.02-14.13L175.02-14.13Q174.94-12.86 174.71-11.94L174.71-11.94L174.71-11.94Q174.64-11.70 174.52-11.16L174.52-11.16L174.52-11.16Q174.41-10.63 174.25-10.63L174.25-10.63L174.25-10.63Q173.87-10.63 173.87-11.16L173.87-11.16L173.87-11.16Q173.87-11.70 173.87-11.94L173.87-11.94L173.87-11.94Q173.71-13.86 173.33-15.82L173.33-15.82L173.33-15.82Q172.94-17.79 172.60-19.87L172.60-19.87L172.60-19.87Q172.25-21.95 172.09-24.06L172.09-24.06L172.09-24.06Q171.94-26.18 172.17-28.41ZM169.48-13.17L169.48-13.17L169.48-13.17Q169.55-14.71 169.21-17.52L169.21-17.52L169.21-17.52Q168.86-20.33 168.94-24.02L168.94-24.02L168.94-24.02Q169.01-25.95 169.32-27.99L169.32-27.99L169.32-27.99Q169.63-30.03 170.79-32.03L170.79-32.03L170.79-32.03Q172.02-34.19 173.90-35.23L173.90-35.23L173.90-35.23Q175.79-36.27 177.18-36.19L177.18-36.19L177.18-36.19Q177.41-36.19 177.64-36.19L177.64-36.19L177.64-36.19Q177.87-36.19 177.87-36.11L177.87-36.11L177.87-36.11Q177.87-35.96 177.79-36.00L177.79-36.00L177.79-36.00Q177.72-36.04 177.25-35.88L177.25-35.88L177.25-35.88Q175.87-35.50 174.79-34.61L174.79-34.61L174.79-34.61Q173.71-33.73 172.94-32.57L172.94-32.57L172.94-32.57Q172.17-31.42 171.71-30.18L171.71-30.18L171.71-30.18Q171.25-28.95 171.17-27.95L171.17-27.95L171.17-27.95Q170.71-23.72 171.25-20.56L171.25-20.56L171.25-20.56Q171.63-18.02 171.86-15.28L171.86-15.28L171.86-15.28Q172.09-12.55 171.67-10.28L171.67-10.28L171.67-10.28Q171.25-8.01 170.05-6.51L170.05-6.51L170.05-6.51Q168.86-5.00 166.40-4.85L166.40-4.85L166.40-4.85Q166.17-4.85 165.82-4.89L165.82-4.89L165.82-4.89Q165.47-4.93 165.47-5.08L165.47-5.08L165.47-5.08Q165.47-5.24 166.17-5.62L166.17-5.62L166.17-5.62Q168.17-6.54 168.78-8.32L168.78-8.32L168.78-8.32Q169.40-10.09 169.48-13.17ZM161.31-4.08L161.31-4.08L161.31-4.08Q162.39-2.39 164.74-1.58L164.74-1.58L164.74-1.58Q167.09-0.77 170.32-1.69L170.32-1.69L170.32-1.69Q171.94-2.16 173.17-3.31L173.17-3.31L173.17-3.31Q174.41-4.47 175.21-5.89L175.21-5.89L175.21-5.89Q176.02-7.31 176.45-8.86L176.45-8.86L176.45-8.86Q176.87-10.39 176.95-11.70L176.95-11.70L176.95-11.70Q177.02-13.86 176.83-15.94L176.83-15.94L176.83-15.94Q176.64-18.02 176.37-19.98L176.37-19.98L176.37-19.98Q176.10-21.95 175.91-23.79L175.91-23.79L175.91-23.79Q175.71-25.64 175.87-27.41L175.87-27.41L175.87-27.41Q176.02-29.34 176.95-30.34L176.95-30.34L176.95-30.34Q177.87-31.34 179.22-31.61L179.22-31.61L179.22-31.61Q180.56-31.88 182.03-31.42L182.03-31.42L182.03-31.42Q183.49-30.95 184.72-29.95L184.72-29.95L184.72-29.95Q185.03-29.80 184.95-29.57L184.95-29.57L184.95-29.57Q184.95-29.41 184.80-29.49L184.80-29.49L184.80-29.49Q184.65-29.57 184.49-29.64L184.49-29.64L184.49-29.64Q181.64-30.57 180.06-30.18L180.06-30.18L180.06-30.18Q178.49-29.80 178.33-27.41L178.33-27.41L178.33-27.41Q178.18-24.64 178.76-20.91L178.76-20.91L178.76-20.91Q179.33-17.17 179.18-12.63L179.18-12.63L179.18-12.63Q179.26-11.09 178.83-9.09L178.83-9.09L178.83-9.09Q178.41-7.08 177.45-5.20L177.45-5.20L177.45-5.20Q176.48-3.31 174.91-1.85L174.91-1.85L174.91-1.85Q173.33-0.39 171.17 0L171.17 0L171.17 0Q167.09 0.62 164.66-0.46L164.66-0.46L164.66-0.46Q162.24-1.54 161.16-3.77L161.16-3.77L161.16-3.77Q161.01-4.24 161.01-4.31L161.01-4.31L161.08-4.31L161.08-4.31Q161.08-4.31 161.31-4.08ZM164.70-4.08L164.70-4.08L164.70-4.08Q166.17-3.70 168.25-3.77L168.25-3.77L168.25-3.77Q168.94-3.85 169.94-4.16L169.94-4.16L169.94-4.16Q170.94-4.47 171.02-4.31L171.02-4.31L171.02-4.31Q171.25-4.00 170.56-3.54L170.56-3.54L170.56-3.54Q169.86-3.08 168.78-2.73L168.78-2.73L168.78-2.73Q167.71-2.39 166.55-2.27L166.55-2.27L166.55-2.27Q165.40-2.16 164.63-2.46L164.63-2.46L164.63-2.46Q163.16-3.08 162.51-3.81L162.51-3.81L162.51-3.81Q161.85-4.54 161.31-5.62L161.31-5.62L161.16-5.93L161.16-5.93Q161.01-6.24 161.08-6.31L161.08-6.31L161.08-6.31Q161.16-6.39 161.31-6.31L161.31-6.31L161.31-6.31Q161.39-6.24 161.39-6.16L161.39-6.16L161.39-6.16Q162.32-5.31 162.97-4.89L162.97-4.89L162.97-4.89Q163.63-4.47 164.70-4.08ZM207.13-31.42L207.13-31.42L207.13-31.42Q207.75-30.65 208.09-29.49L208.09-29.49L208.09-29.49Q208.44-28.34 208.36-26.99L208.36-26.99L208.36-26.99Q208.28-25.64 207.75-24.18L207.75-24.18L207.75-24.18Q207.21-22.71 206.05-21.33L206.05-21.33L206.05-21.33Q203.82-18.71 201.16-17.29L201.16-17.29L201.16-17.29Q198.51-15.86 196.35-15.86L196.35-15.86L196.35-15.86Q195.04-15.86 196.35-16.32L196.35-16.32L196.35-16.32Q197.04-16.55 198.01-17.06L198.01-17.06L198.01-17.06Q198.97-17.56 200.05-18.29L200.05-18.29L200.05-18.29Q201.12-19.02 202.24-20.02L202.24-20.02L202.24-20.02Q203.36-21.02 204.28-22.33L204.28-22.33L204.28-22.33Q205.82-24.49 206.09-26.53L206.09-26.53L206.09-26.53Q206.36-28.57 205.28-29.64L205.28-29.64L205.28-29.64Q204.36-30.57 203.13-30.68L203.13-30.68L203.13-30.68Q201.89-30.80 199.43-29.34L199.43-29.34L199.43-29.34Q197.20-28.03 195.43-26.10L195.43-26.10L195.43-26.10Q193.65-24.18 192.11-22.02L192.11-22.02L192.11-22.02Q191.27-20.94 191.00-20.94L191.00-20.94L191.00-20.94Q190.73-20.94 191.19-22.33L191.19-22.33L191.19-22.33Q192.11-25.02 193.77-27.34L193.77-27.34L193.77-27.34Q195.43-29.64 197.74-31.26L197.74-31.26L197.74-31.26Q199.43-32.42 200.85-32.88L200.85-32.88L200.85-32.88Q202.28-33.34 203.47-33.26L203.47-33.26L203.47-33.26Q204.67-33.19 205.59-32.69L205.59-32.69L205.59-32.69Q206.51-32.19 207.13-31.42ZM211.29-26.03L211.29-26.03L211.29-26.03Q210.98-24.18 210.33-22.91L210.33-22.91L210.33-22.91Q209.67-21.64 208.86-20.75L208.86-20.75L208.86-20.75Q208.05-19.87 207.25-19.33L207.25-19.33L207.25-19.33Q206.44-18.79 205.82-18.33L205.82-18.33L205.82-18.33Q205.51-18.09 205.36-18.25L205.36-18.25L205.36-18.25Q205.20-18.40 205.59-18.79L205.59-18.79L205.59-18.79Q206.98-19.94 208.40-21.91L208.40-21.91L208.40-21.91Q209.82-23.87 209.90-26.26L209.90-26.26L209.90-26.26Q209.90-30.34 207.90-32.49L207.90-32.49L207.90-32.49Q205.90-34.65 202.89-34.38L202.89-34.38L202.89-34.38Q199.89-34.11 196.66-32.03L196.66-32.03L196.66-32.03Q194.58-30.72 193.00-28.99L193.00-28.99L193.00-28.99Q191.42-27.26 190.27-25.29L190.27-25.29L190.27-25.29Q189.11-23.33 188.38-21.25L188.38-21.25L188.38-21.25Q187.65-19.17 187.34-17.09L187.34-17.09L187.34-17.09Q187.03-15.09 186.76-12.78L186.76-12.78L186.76-12.78Q186.49-10.47 186.76-8.24L186.76-8.24L186.76-8.24Q187.03-6.01 188.19-3.97L188.19-3.97L188.19-3.97Q189.34-1.93 191.81-0.46L191.81-0.46L191.81-0.46Q192.19-0.23 192.62-0.15L192.62-0.15L192.62-0.15Q193.04-0.08 193.04 0L193.04 0L193.04 0Q193.04 0.15 192.65 0.19L192.65 0.19L192.65 0.19Q192.27 0.23 191.81 0.08L191.81 0.08L191.81 0.08Q189.88-0.31 188.53-1.50L188.53-1.50L188.53-1.50Q187.19-2.69 186.34-4.24L186.34-4.24L186.34-4.24Q185.49-5.78 185.03-7.47L185.03-7.47L185.03-7.47Q184.57-9.16 184.49-10.55L184.49-10.55L184.49-10.55Q184.03-16.63 186.19-22.56L186.19-22.56L186.19-22.56Q186.65-23.79 187.38-25.33L187.38-25.33L187.38-25.33Q188.11-26.87 189.19-28.45L189.19-28.45L189.19-28.45Q190.27-30.03 191.73-31.53L191.73-31.53L191.73-31.53Q193.19-33.03 195.04-34.19L195.04-34.19L195.04-34.19Q196.81-35.27 198.74-35.80L198.74-35.80L198.74-35.80Q200.66-36.34 202.59-36.31L202.59-36.31L202.59-36.31Q204.51-36.27 206.21-35.61L206.21-35.61L206.21-35.61Q207.90-34.96 209.21-33.65L209.21-33.65L209.21-33.65Q210.36-32.42 211.02-30.49L211.02-30.49L211.02-30.49Q211.67-28.57 211.29-26.03ZM204.28-28.80L204.28-28.80L204.28-28.80Q205.20-27.72 204.51-25.45L204.51-25.45L204.51-25.45Q203.82-23.18 201.28-20.87L201.28-20.87L201.28-20.87Q199.89-19.56 198.58-18.75L198.58-18.75L198.58-18.75Q197.27-17.94 195.27-17.32L195.27-17.32L195.27-17.32Q194.42-14.40 194.19-11.55L194.19-11.55L194.19-11.55Q193.96-8.70 194.35-6.93L194.35-6.93L194.35-6.93Q194.42-6.24 194.85-5.58L194.85-5.58L194.85-5.58Q195.27-4.93 196.08-4.58L196.08-4.58L196.08-4.58Q196.89-4.24 198.20-4.31L198.20-4.31L198.20-4.31Q199.51-4.39 201.43-5.16L201.43-5.16L201.43-5.16Q201.97-5.39 202.09-5.27L202.09-5.27L202.09-5.27Q202.20-5.16 201.59-4.77L201.59-4.77L201.59-4.77Q200.20-3.70 198.66-3.27L198.66-3.27L198.66-3.27Q197.12-2.85 195.77-3.00L195.77-3.00L195.77-3.00Q194.42-3.16 193.46-3.93L193.46-3.93L193.46-3.93Q192.50-4.70 192.19-6.01L192.19-6.01L192.19-6.01Q191.58-8.70 191.65-11.63L191.65-11.63L191.65-11.63Q191.73-14.55 192.54-17.40L192.54-17.40L192.54-17.40Q193.35-20.25 194.85-22.75L194.85-22.75L194.85-22.75Q196.35-25.26 198.58-27.03L198.58-27.03L198.58-27.03Q202.74-30.34 204.28-28.80ZM203.51-4.24L203.51-4.24L203.51-4.24Q202.97-3.46 202.16-2.73L202.16-2.73L202.16-2.73Q201.35-2.00 200.32-1.42L200.32-1.42L200.32-1.42Q199.28-0.85 198.16-0.46L198.16-0.46L198.16-0.46Q197.04-0.08 195.89-0.08L195.89-0.08L195.89-0.08Q193.89-0.08 192.15-0.96L192.15-0.96L192.15-0.96Q190.42-1.85 189.50-4.54L189.50-4.54L189.50-4.54Q189.34-4.85 189.34-5.12L189.34-5.12L189.34-5.12Q189.34-5.39 189.50-5.39L189.50-5.39L189.50-5.39Q189.80-5.54 190.11-5.20L190.11-5.20L190.11-5.20Q190.42-4.85 190.73-4.47L190.73-4.47L190.73-4.47Q191.58-3.46 192.92-2.69L192.92-2.69L192.92-2.69Q194.27-1.93 195.50-1.93L195.50-1.93L195.50-1.93Q197.81-1.93 199.51-2.62L199.51-2.62L199.51-2.62Q201.20-3.31 202.74-4.47L202.74-4.47L202.74-4.47Q203.13-4.70 203.63-4.93L203.63-4.93L203.63-4.93Q204.13-5.16 203.51-4.24ZM202.43-26.72L202.43-26.72L202.43-26.72Q202.12-27.34 200.20-25.72L200.20-25.72L200.20-25.72Q198.43-24.33 197.39-22.52L197.39-22.52L197.39-22.52Q196.35-20.71 195.58-18.56L195.58-18.56L195.58-18.56Q197.04-19.25 198.27-20.14L198.27-20.14L198.27-20.14Q199.51-21.02 200.58-21.87L200.58-21.87L200.58-21.87Q201.74-22.87 202.28-24.49L202.28-24.49L202.28-24.49Q202.82-26.10 202.43-26.72ZM221.22-25.64L221.22-25.64L221.22-25.64Q220.60-23.02 219.49-20.14L219.49-20.14L219.49-20.14Q218.37-17.25 216.99-14.78L216.99-14.78L216.99-14.78Q216.99-14.63 216.79-14.28L216.79-14.28L216.79-14.28Q216.60-13.94 216.29-13.94L216.29-13.94L216.29-13.94Q216.14-13.94 216.10-14.40L216.10-14.40L216.10-14.40Q216.06-14.86 216.14-15.02L216.14-15.02L216.14-15.02Q216.14-16.25 216.45-18.29L216.45-18.29L216.45-18.29Q216.75-20.33 217.22-21.64L217.22-21.64L217.22-21.64Q217.37-22.10 217.72-23.87L217.72-23.87L217.72-23.87Q218.06-25.64 218.33-27.84L218.33-27.84L218.33-27.84Q218.60-30.03 218.64-32.07L218.64-32.07L218.64-32.07Q218.68-34.11 218.14-35.11L218.14-35.11L218.14-35.42L218.14-35.42Q218.45-35.65 218.83-35.27L218.83-35.27L218.83-35.27Q219.83-34.42 220.41-33.19L220.41-33.19L220.41-33.19Q220.99-31.95 221.26-30.61L221.26-30.61L221.26-30.61Q221.53-29.26 221.49-27.95L221.49-27.95L221.49-27.95Q221.45-26.64 221.22-25.64ZM224.22-25.95L224.22-25.95L224.22-25.95Q225.07-27.03 225.84-27.49L225.84-27.49L225.84-27.49Q226.61-27.95 227.38-28.26L227.38-28.26L227.38-28.26Q227.46-28.26 227.77-28.34L227.77-28.34L227.77-28.34Q228.07-28.41 228.23-28.18L228.23-28.18L228.23-28.18Q228.38-27.95 228.15-27.64L228.15-27.64L228.15-27.64Q227.92-27.34 227.77-27.18L227.77-27.18L227.77-27.18Q227.23-26.64 226.57-25.99L226.57-25.99L226.57-25.99Q225.92-25.33 225.38-24.72L225.38-24.72L225.38-24.72Q224.61-23.87 224.15-22.75L224.15-22.75L224.15-22.75Q223.68-21.64 223.45-20.48L223.45-20.48L223.45-20.48Q224.76-21.87 225.96-23.10L225.96-23.10L225.96-23.10Q227.15-24.33 228.54-25.41L228.54-25.41L228.54-25.41Q230.31-26.72 231.62-28.80L231.62-28.80L231.62-28.80Q232.92-30.88 233.46-34.88L233.46-34.88L233.46-34.88Q233.62-35.27 233.85-35.34L233.85-35.34L233.85-35.34Q234.08-35.42 234.08-34.80L234.08-34.80L234.08-34.80Q234.31-30.34 233.16-27.72L233.16-27.72L233.16-27.72Q232.00-25.10 229.69-23.33L229.69-23.33L229.69-23.33Q228.46-22.41 227.23-21.33L227.23-21.33L227.23-21.33Q225.99-20.25 224.88-18.94L224.88-18.94L224.88-18.94Q223.76-17.63 222.84-15.86L222.84-15.86L222.84-15.86Q221.91-14.09 221.22-11.78L221.22-11.78L221.22-11.78Q220.68-10.01 220.14-8.43L220.14-8.43L220.14-8.43Q219.60-6.85 218.99-5.39L218.99-5.39L218.99-5.39Q218.83-4.85 218.53-4.85L218.53-4.85L218.53-4.85Q218.29-4.93 218.29-5.62L218.29-5.62L218.29-5.62Q217.91-9.32 218.80-12.97L218.80-12.97L218.80-12.97Q219.68-16.63 220.91-20.56L220.91-20.56L220.91-20.56Q221.45-22.48 222.18-24.41L222.18-24.41L222.18-24.41Q222.91-26.33 222.84-28.80L222.84-28.80L222.84-28.80Q222.84-29.64 223.53-30.57L223.53-30.57L223.53-30.57Q224.22-31.49 225.22-32.30L225.22-32.30L225.22-32.30Q226.23-33.11 227.30-33.69L227.30-33.69L227.30-33.69Q228.38-34.27 229.15-34.50L229.15-34.50L229.15-34.50Q229.84-34.73 229.84-34.42L229.84-34.42L229.84-34.42Q229.84-34.11 229.38-33.65L229.38-33.65L229.38-33.65Q227.77-32.19 226.11-30.18L226.11-30.18L226.11-30.18Q224.45-28.18 224.22-25.95ZM217.52-0.08L217.52-0.08L217.52-0.08Q217.45 0 217.41-0.04L217.41-0.04L217.41-0.04Q217.37-0.08 216.99-0.31L216.99-0.31L216.99-0.31Q214.68-2.00 213.37-4.00L213.37-4.00L213.37-4.00Q212.06-6.01 211.48-8.12L211.48-8.12L211.48-8.12Q210.90-10.24 210.98-12.36L210.98-12.36L210.98-12.36Q211.06-14.48 211.52-16.48L211.52-16.48L211.52-16.48Q212.13-19.17 213.02-21.83L213.02-21.83L213.02-21.83Q213.91-24.49 214.68-26.99L214.68-26.99L214.68-26.99Q215.45-29.49 215.83-31.92L215.83-31.92L215.83-31.92Q216.22-34.34 215.83-36.58L215.83-36.58L215.83-36.58Q215.83-36.73 216.06-36.81L216.06-36.81L216.06-36.81Q216.14-36.81 216.22-36.69L216.22-36.69L216.22-36.69Q216.29-36.58 216.37-36.50L216.37-36.50L216.37-36.50Q217.83-34.03 217.83-31.45L217.83-31.45L217.83-31.45Q217.83-28.88 217.14-26.22L217.14-26.22L217.14-26.22Q216.45-23.56 215.41-20.83L215.41-20.83L215.41-20.83Q214.37-18.09 213.75-15.32L213.75-15.32L213.75-15.32Q212.98-11.78 213.64-7.78L213.64-7.78L213.64-7.78Q214.29-3.77 217.22-0.62L217.22-0.62L217.22-0.62Q217.37-0.39 217.52-0.31L217.52-0.31L217.52-0.31Q217.68-0.23 217.52-0.08ZM219.83 0L219.83 0L219.83 0Q219.68 0 219.53-0.08L219.53-0.08L219.22-0.23L219.22-0.23Q218.14-0.92 217.29-1.73L217.29-1.73L217.29-1.73Q216.45-2.54 215.83-4.08L215.83-4.08L215.83-4.08Q215.60-4.62 215.45-5.51L215.45-5.51L215.45-5.51Q215.29-6.39 215.25-7.16L215.25-7.16L215.25-7.16Q215.21-7.93 215.33-8.47L215.33-8.47L215.33-8.47Q215.45-9.01 215.75-8.93L215.75-8.93L215.75-8.93Q215.98-8.93 216.25-8.32L216.25-8.32L216.25-8.32Q216.52-7.70 216.68-7.08L216.68-7.08L216.68-7.08Q216.83-6.24 217.02-5.47L217.02-5.47L217.02-5.47Q217.22-4.70 217.52-4.08L217.52-4.08L217.52-4.08Q218.37-2.16 219.76-0.39L219.76-0.39L219.76-0.39Q219.91 0 219.83 0ZM232.39-34.57L232.39-34.57L232.39-34.57Q232.39-32.96 231.46-31.72L231.46-31.72L231.46-31.72Q230.54-30.49 229.23-29.64L229.23-29.64L229.23-29.64Q229.00-29.49 228.92-29.68L228.92-29.68L228.92-29.68Q228.84-29.88 228.84-29.95L228.84-29.95L228.84-29.95Q228.84-30.41 229.23-31.07L229.23-31.07L229.23-31.07Q229.61-31.72 230.11-32.46L230.11-32.46L230.11-32.46Q230.61-33.19 231.08-33.96L231.08-33.96L231.08-33.96Q231.54-34.73 231.69-35.34L231.69-35.34L231.69-35.34Q231.92-35.73 232.15-35.34L232.15-35.34L232.15-35.34Q232.39-34.96 232.39-34.57Z" fill="url(#editing-sticker-gradient)" stroke="#33e857" stroke-width="3"></path></g></g><style>text {
  font-size: 64px;
  font-family: Arial Black;
  dominant-baseline: central;
  text-anchor: middle;
}</style></svg>